<svg xmlns="http://www.w3.org/2000/svg" viewBox="0 0 512 512" role="img" aria-labelledby="title desc">
  <title id="title">Palavra Amiga</title>
  <desc id="desc">Ícone com coração e balão de mensagem ao nascer do sol.</desc>
  <defs>
    <linearGradient id="bg" x1="88" y1="70" x2="438" y2="456" gradientUnits="userSpaceOnUse">
      <stop offset="0" stop-color="#fff7e8"/>
      <stop offset="0.52" stop-color="#f2d9b8"/>
      <stop offset="1" stop-color="#c46d45"/>
    </linearGradient>
    <linearGradient id="heart" x1="146" y1="148" x2="370" y2="374" gradientUnits="userSpaceOnUse">
      <stop offset="0" stop-color="#ff8a6a"/>
      <stop offset="0.55" stop-color="#d65f43"/>
      <stop offset="1" stop-color="#8f3f2f"/>
    </linearGradient>
    <filter id="softShadow" x="-20%" y="-20%" width="140%" height="150%">
      <feDropShadow dx="0" dy="20" stdDeviation="18" flood-color="#4c3528" flood-opacity=".22"/>
    </filter>
  </defs>

  <rect width="512" height="512" rx="116" fill="url(#bg)"/>
  <circle cx="398" cy="116" r="38" fill="#fff4d2" opacity=".95"/>
  <path d="M94 364c62-64 115-79 175-47 44 24 88 18 149-36v115H94z" fill="#2f4b3c" opacity=".17"/>

  <g filter="url(#softShadow)">
    <path
      d="M101 237c0-79 65-143 154-143h11c86 0 151 61 151 139 0 80-65 142-154 142h-17l-80 48c-16 10-35-6-28-24l24-61c-38-25-61-61-61-101z"
      fill="#fffaf0"
    />
    <path
      d="M101 237c0-79 65-143 154-143h11c86 0 151 61 151 139 0 80-65 142-154 142h-17l-80 48c-16 10-35-6-28-24l24-61c-38-25-61-61-61-101z"
      fill="none"
      stroke="#2f4b3c"
      stroke-width="18"
      stroke-linejoin="round"
    />
  </g>

  <path
    d="M257 318c-4 0-8-1-11-4-58-43-92-75-92-114 0-32 23-55 53-55 20 0 37 10 50 27 13-17 30-27 50-27 30 0 53 23 53 55 0 39-34 71-92 114-3 3-7 4-11 4z"
    fill="url(#heart)"
  />
  <path
    d="M207 188c-11 0-21 8-21 21"
    fill="none"
    stroke="#fff3e5"
    stroke-width="16"
    stroke-linecap="round"
    opacity=".75"
  />
</svg>
